#!OML:ASF F:\VICON\USERDATA\INSTALL\rory3\rory3.ASF
:FULLY-SPECIFIED
:DEGREES
90
root 0.5450573298303907 17.751825417886117 41.84934982332619 -3.8993637462595707 -4.76155392544122 -2.495414358433558
lfemur -20.50875188421734 -3.083653863551099 -19.143193915552565
ltibia 31.250344198893373
lfoot -3.4215574514996963 -3.6347578487246803
ltoes -0.4262767293464247
rfemur 1.895451798779094 1.9719579081537126 25.41353527515341
rtibia 64.88495447510691
rfoot 17.533108128390896 -0.7946942679342506
rtoes 11.80843637410462
lowerback 9.405110776944904 2.4623383106848284 2.616516619332957
upperback 0.20777151331748922 3.6344908625116794 0.6570831563630626
thorax -4.964943627402095 1.7247940388897578 -1.2379416769463472
lowerneck -15.719074552830769 -3.2585470215589236 -1.9836284041402892
upperneck 20.37094116352166 -4.325633419450909 1.3756920135113995
head 9.034761650947392 -2.038369201718929 0.257033201159638
lclavicle -7.753654000989039e-16 -6.66338222512533e-16
lhumerus -39.315028662240024 16.539263957878404 75.72984098430106
lradius 15.118830622681969
lwrist 0.29681737102265515
lhand -28.725177150994956 21.8615152934957
lfingers 7.125020000000057
lthumb -2.085799811803997 51.80774832044504
rclavicle -7.753654000989039e-16 -6.66338222512533e-16
rhumerus -24.751030654682864 -16.084017841534063 -80.91945508993938
rradius 32.00607031210672
rwrist 2.029707030174463
rhand -17.61001917067378 30.62066055934006
rfingers 7.125020000000057
rthumb 8.647021515012739 -5.767301248345182
91
root 0.5626924262986558 17.81122423941053 42.73005812222294 -4.436147622177807 -4.87931632156026 -1.3873150839491444
lfemur -17.582707861302733 -3.2169492470579786 -20.898283670985776
ltibia 31.889436082945334
lfoot -5.888342301329855 -2.204107896503653
ltoes 0.2942748030202962
rfemur -4.04226661410328 0.5080734960652795 23.650573524500654
rtibia 75.19608954603876
rfoot 18.20610419277079 -3.467465145551714
rtoes 16.096755132393646
lowerback 9.876566860412598 2.2857961307225665 1.6173225363847386
upperback 0.33743812231390574 3.294645466051675 0.5147258501455694
thorax -5.112651465827915 1.5768003797527719 -0.7551772955286414
lowerneck -15.711294022899693 -3.0412698893508625 -2.041525343889563
upperneck 20.386436274728073 -3.993062653329832 1.3049316958901078
head 9.032434837742702 -1.893489520617425 0.27887162827364276
lclavicle -6.809500378471729e-16 -5.932321003389531e-16
lhumerus -38.43300114033546 14.831732444841 76.77238554243644
lradius 16.389467872750593
lwrist 1.9888172985028412
lhand -29.703904693961153 20.503036079105165
lfingers 7.125020000000058
lthumb -3.030989211799974 50.447884178513156
rclavicle -6.809500378471729e-16 -5.932321003389531e-16
rhumerus -25.4348297033069 -16.956622671170454 -80.77327841423505
rradius 31.269784770347325
rwrist 3.5940433111363648
rhand -17.471530515593802 30.58708297535568
rfingers 7.125020000000058
rthumb 8.780661915234802 -5.9786239867344495
92
root 0.564297116408986 17.842459580039854 43.047910582580855 -4.91745731953336 -4.830609400553694 -0.6596863198969631
lfemur -14.988905693913072 -3.58130625679256 -22.420270656137582
ltibia 31.12273334344508
lfoot -8.657634624757772 -0.8708050981936397
ltoes 0.43586480258239746
rfemur -10.415623894172285 -1.076875927560724 22.39137012050715
rtibia 82.09435605894876
rfoot 13.493994378944732 -5.943360182516822
rtoes 16.867596985161054
lowerback 10.209070576027317 1.931871185185317 0.7163962943149871
upperback 0.4628686129762149 2.724127044675745 0.4692272793553254
thorax -5.236832489142841 1.3183787437866479 -0.281101753717797
lowerneck -15.66244703898991 -2.8431955283938937 -2.1596677507337065
upperneck 20.304662101865613 -3.6782244063026903 1.190418490231466
head 8.988492809620887 -1.7597635683758037 0.2976533531840704
lclavicle -1.0791725623874856e-15 -9.01576897198322e-16
lhumerus -37.314558544879155 12.703801840599477 77.62159207966043
lradius 16.403261425260126
lwrist 2.791269252450917
lhand -30.626287528587067 18.842381422204163
lfingers 7.125020000000057
lthumb -3.921785035150946 48.78866701194954
rclavicle -1.0791725623874856e-15 -9.01576897198322e-16
rhumerus -26.211252656834546 -18.178398978109243 -80.85643760941579
rradius 29.46738579152847
rwrist 4.709489258898016
rhand -17.40385364230463 30.39359614698278
rfingers 7.125020000000057
rthumb 8.845960912054739 -6.439994471544955
93
root 0.5761870896808465 17.85987782913113 43.90274881709498 -5.160464094871663 -4.369436035275174 -0.05932974846194439
lfemur -11.93240438227234 -3.9360010860684405 -23.536832211490992
ltibia 30.599651404481918
lfoot -11.046199849204912 0.43516637014242043
ltoes 0.7037423483934004
rfemur -16.07156047198259 -2.416548584437692 21.824301072928094
rtibia 85.69252868832666
rfoot 6.535192575872932 -7.174158338594037
rtoes 15.394012449596715
lowerback 10.517329379890283 1.4954857563241881 0.06126799849054709
upperback 0.5905868306809761 2.0636976776825686 0.5306486206436752
thorax -5.2613082428951925 1.012430059468287 0.2790916579929035
lowerneck -15.526222215714721 -2.6744522795845684 -2.328585929618969
upperneck 20.34639299327161 -3.391786102226675 1.1665641240231603
head 8.976338406389207 -1.6425252387391969 0.34950551683409425
lclavicle -9.550323114993574e-16 -8.054546937019994e-16
lhumerus -35.389663954371386 10.513715020412949 78.49763802051777
lradius 17.280937554198523
lwrist 3.3873627888701296
lhand -31.023362162729825 18.002475524781286
lfingers 7.125020000000057
lthumb -4.305298247626399 47.952686414951124
rclavicle -9.550323114993574e-16 -8.054546937019994e-16
rhumerus -26.75431894290262 -18.72226822606445 -80.68468666170159
rradius 28.86783624078776
rwrist 5.421516767851359
rhand -17.339384532513314 30.397563908250948
rfingers 7.125020000000057
rthumb 8.908190602120051 -6.722727979885588
